<svg xmlns="http://www.w3.org/2000/svg" width="24" height="24" viewBox="0 0 24 24" fill="none" stroke="hsl(15, 60%, 45%)" stroke-width="2" stroke-linecap="round" stroke-linejoin="round" class="lucide lucide-book-open h-8 w-8 text-book-spine" data-lov-id="src/components/Header.tsx:11:10" data-lov-name="BookOpen" data-component-path="src/components/Header.tsx" data-component-line="11" data-component-file="Header.tsx" data-component-name="BookOpen" data-component-content="%7B%22className%22%3A%22h-8%20w-8%20text-book-spine%22%7D"><path d="M12 7v14"></path><path d="M3 18a1 1 0 0 1-1-1V4a1 1 0 0 1 1-1h5a4 4 0 0 1 4 4 4 4 0 0 1 4-4h5a1 1 0 0 1 1 1v13a1 1 0 0 1-1 1h-6a3 3 0 0 0-3 3 3 3 0 0 0-3-3z"></path></svg>