<svg xmlns="http://www.w3.org/2000/svg" width="24" height="24" viewBox="0 0 24 24" fill="none" stroke="#f0c442" stroke-width="2" stroke-linecap="round" stroke-linejoin="round" class="lucide lucide-recycle h-8 w-8 text-coin" data-lov-id="src/components/Stats.tsx:19:12" data-lov-name="Recycle" data-component-path="src/components/Stats.tsx" data-component-line="19" data-component-file="Stats.tsx" data-component-name="Recycle" data-component-content="%7B%22className%22%3A%22h-8%20w-8%20text-coin%22%7D"><path d="M7 19H4.815a1.83 1.83 0 0 1-1.57-.881 1.785 1.785 0 0 1-.004-1.784L7.196 9.5"></path><path d="M11 19h8.203a1.83 1.83 0 0 0 1.556-.89 1.784 1.784 0 0 0 0-1.775l-1.226-2.12"></path><path d="m14 16-3 3 3 3"></path><path d="M8.293 13.596 7.196 9.5 3.1 10.598"></path><path d="m9.344 5.811 1.093-1.892A1.83 1.83 0 0 1 11.985 3a1.784 1.784 0 0 1 1.546.888l3.943 6.843"></path><path d="m13.378 9.633 4.096 1.098 1.097-4.096"></path></svg>